<svg width="20" height="20" viewBox="0 0 20 20" fill="none" xmlns="http://www.w3.org/2000/svg">
<path d="M13.5938 8.375H10.625V5.40625C10.625 5.32031 10.5547 5.25 10.4688 5.25H9.53125C9.44531 5.25 9.375 5.32031 9.375 5.40625V8.375H6.40625C6.32031 8.375 6.25 8.44531 6.25 8.53125V9.46875C6.25 9.55469 6.32031 9.625 6.40625 9.625H9.375V12.5938C9.375 12.6797 9.44531 12.75 9.53125 12.75H10.4688C10.5547 12.75 10.625 12.6797 10.625 12.5938V9.625H13.5938C13.6797 9.625 13.75 9.55469 13.75 9.46875V8.53125C13.75 8.44531 13.6797 8.375 13.5938 8.375Z" fill="black" fill-opacity="0.4"/>
<path d="M10 0.25C5.16797 0.25 1.25 4.16797 1.25 9C1.25 13.832 5.16797 17.75 10 17.75C14.832 17.75 18.75 13.832 18.75 9C18.75 4.16797 14.832 0.25 10 0.25ZM10 16.2656C5.98828 16.2656 2.73438 13.0117 2.73438 9C2.73438 4.98828 5.98828 1.73438 10 1.73438C14.0117 1.73438 17.2656 4.98828 17.2656 9C17.2656 13.0117 14.0117 16.2656 10 16.2656Z" fill="black" fill-opacity="0.4"/>
</svg>
