<svg width="210" height="57" viewBox="0 0 210 57" fill="none" xmlns="http://www.w3.org/2000/svg">
<path d="M54.6816 29.3228C54.6641 26.3257 56.022 24.0669 58.7642 22.4014C57.2305 20.2041 54.9102 18.9956 51.8516 18.7627C48.9556 18.5342 45.7871 20.4502 44.627 20.4502C43.4009 20.4502 40.5972 18.8418 38.3911 18.8418C33.8384 18.9121 29 22.4717 29 29.7139C29 31.854 29.3911 34.0645 30.1733 36.3408C31.2192 39.3379 34.9897 46.6812 38.9229 46.5625C40.9795 46.5142 42.4341 45.1035 45.1103 45.1035C47.7075 45.1035 49.0522 46.5625 51.3462 46.5625C55.3145 46.5054 58.7246 39.8301 59.7178 36.8242C54.396 34.3149 54.6816 29.4766 54.6816 29.3228ZM50.063 15.9194C52.291 13.2739 52.0889 10.8657 52.023 10C50.0542 10.1143 47.7778 11.3403 46.4814 12.8477C45.0532 14.4648 44.2139 16.4644 44.394 18.7188C46.521 18.8813 48.4634 17.7871 50.063 15.9194Z" fill="white"/>
<path d="M87.328 31.616L84.628 24.62C84.548 24.412 84.464 24.172 84.376 23.9C84.288 23.62 84.204 23.324 84.124 23.012C83.956 23.66 83.784 24.2 83.608 24.632L80.908 31.616H87.328ZM92.176 38H90.376C90.168 38 90 37.948 89.872 37.844C89.744 37.74 89.648 37.608 89.584 37.448L87.976 33.296H80.26L78.652 37.448C78.604 37.592 78.512 37.72 78.376 37.832C78.24 37.944 78.072 38 77.872 38H76.072L82.948 20.804H85.3L92.176 38ZM96.0353 35.072C96.4273 35.6 96.8553 35.972 97.3193 36.188C97.7833 36.404 98.3033 36.512 98.8793 36.512C100.015 36.512 100.887 36.108 101.495 35.3C102.103 34.492 102.407 33.34 102.407 31.844C102.407 31.052 102.335 30.372 102.191 29.804C102.055 29.236 101.855 28.772 101.591 28.412C101.327 28.044 101.003 27.776 100.619 27.608C100.235 27.44 99.7993 27.356 99.3113 27.356C98.6153 27.356 98.0033 27.516 97.4753 27.836C96.9553 28.156 96.4753 28.608 96.0353 29.192V35.072ZM95.9273 27.728C96.4393 27.096 97.0313 26.588 97.7033 26.204C98.3753 25.82 99.1433 25.628 100.007 25.628C100.711 25.628 101.347 25.764 101.915 26.036C102.483 26.3 102.967 26.696 103.367 27.224C103.767 27.744 104.075 28.392 104.291 29.168C104.507 29.944 104.615 30.836 104.615 31.844C104.615 32.74 104.495 33.576 104.255 34.352C104.015 35.12 103.667 35.788 103.211 36.356C102.763 36.916 102.211 37.36 101.555 37.688C100.907 38.008 100.175 38.168 99.3593 38.168C98.6153 38.168 97.9753 38.044 97.4393 37.796C96.9113 37.54 96.4433 37.188 96.0353 36.74V42.116H93.8873V25.844H95.1713C95.4753 25.844 95.6633 25.992 95.7353 26.288L95.9273 27.728ZM109.488 35.072C109.88 35.6 110.308 35.972 110.772 36.188C111.236 36.404 111.756 36.512 112.332 36.512C113.468 36.512 114.34 36.108 114.948 35.3C115.556 34.492 115.86 33.34 115.86 31.844C115.86 31.052 115.788 30.372 115.644 29.804C115.508 29.236 115.308 28.772 115.044 28.412C114.78 28.044 114.456 27.776 114.072 27.608C113.688 27.44 113.252 27.356 112.764 27.356C112.068 27.356 111.456 27.516 110.928 27.836C110.408 28.156 109.928 28.608 109.488 29.192V35.072ZM109.38 27.728C109.892 27.096 110.484 26.588 111.156 26.204C111.828 25.82 112.596 25.628 113.46 25.628C114.164 25.628 114.8 25.764 115.368 26.036C115.936 26.3 116.42 26.696 116.82 27.224C117.22 27.744 117.528 28.392 117.744 29.168C117.96 29.944 118.068 30.836 118.068 31.844C118.068 32.74 117.948 33.576 117.708 34.352C117.468 35.12 117.12 35.788 116.664 36.356C116.216 36.916 115.664 37.36 115.008 37.688C114.36 38.008 113.628 38.168 112.812 38.168C112.068 38.168 111.428 38.044 110.892 37.796C110.364 37.54 109.896 37.188 109.488 36.74V42.116H107.34V25.844H108.624C108.928 25.844 109.116 25.992 109.188 26.288L109.38 27.728ZM136.234 23.492C136.162 23.612 136.082 23.704 135.994 23.768C135.914 23.824 135.814 23.852 135.694 23.852C135.558 23.852 135.398 23.784 135.214 23.648C135.03 23.512 134.798 23.364 134.518 23.204C134.246 23.036 133.914 22.884 133.522 22.748C133.138 22.612 132.67 22.544 132.118 22.544C131.598 22.544 131.138 22.616 130.738 22.76C130.346 22.896 130.014 23.084 129.742 23.324C129.478 23.564 129.278 23.848 129.142 24.176C129.006 24.496 128.938 24.844 128.938 25.22C128.938 25.7 129.054 26.1 129.286 26.42C129.526 26.732 129.838 27 130.222 27.224C130.614 27.448 131.054 27.644 131.542 27.812C132.038 27.972 132.542 28.14 133.054 28.316C133.574 28.492 134.078 28.692 134.566 28.916C135.062 29.132 135.502 29.408 135.886 29.744C136.278 30.08 136.59 30.492 136.822 30.98C137.062 31.468 137.182 32.068 137.182 32.78C137.182 33.532 137.054 34.24 136.798 34.904C136.542 35.56 136.166 36.132 135.67 36.62C135.182 37.108 134.578 37.492 133.858 37.772C133.146 38.052 132.334 38.192 131.422 38.192C130.302 38.192 129.286 37.992 128.374 37.592C127.462 37.184 126.682 36.636 126.034 35.948L126.706 34.844C126.77 34.756 126.846 34.684 126.934 34.628C127.03 34.564 127.134 34.532 127.246 34.532C127.35 34.532 127.466 34.576 127.594 34.664C127.73 34.744 127.882 34.848 128.05 34.976C128.218 35.104 128.41 35.244 128.626 35.396C128.842 35.548 129.086 35.688 129.358 35.816C129.638 35.944 129.954 36.052 130.306 36.14C130.658 36.22 131.054 36.26 131.494 36.26C132.046 36.26 132.538 36.184 132.97 36.032C133.402 35.88 133.766 35.668 134.062 35.396C134.366 35.116 134.598 34.784 134.758 34.4C134.918 34.016 134.998 33.588 134.998 33.116C134.998 32.596 134.878 32.172 134.638 31.844C134.406 31.508 134.098 31.228 133.714 31.004C133.33 30.78 132.89 30.592 132.394 30.44C131.898 30.28 131.394 30.12 130.882 29.96C130.37 29.792 129.866 29.6 129.37 29.384C128.874 29.168 128.434 28.888 128.05 28.544C127.666 28.2 127.354 27.772 127.114 27.26C126.882 26.74 126.766 26.1 126.766 25.34C126.766 24.732 126.882 24.144 127.114 23.576C127.354 23.008 127.698 22.504 128.146 22.064C128.602 21.624 129.158 21.272 129.814 21.008C130.478 20.744 131.238 20.612 132.094 20.612C133.054 20.612 133.926 20.764 134.71 21.068C135.502 21.372 136.198 21.812 136.798 22.388L136.234 23.492ZM143.158 38.192C142.198 38.192 141.458 37.924 140.938 37.388C140.426 36.852 140.17 36.08 140.17 35.072V27.632H138.706C138.578 27.632 138.47 27.596 138.382 27.524C138.294 27.444 138.25 27.324 138.25 27.164V26.312L140.242 26.06L140.734 22.304C140.758 22.184 140.81 22.088 140.89 22.016C140.978 21.936 141.09 21.896 141.226 21.896H142.306V26.084H145.822V27.632H142.306V34.928C142.306 35.44 142.43 35.82 142.678 36.068C142.926 36.316 143.246 36.44 143.638 36.44C143.862 36.44 144.054 36.412 144.214 36.356C144.382 36.292 144.526 36.224 144.646 36.152C144.766 36.08 144.866 36.016 144.946 35.96C145.034 35.896 145.11 35.864 145.174 35.864C145.286 35.864 145.386 35.932 145.474 36.068L146.098 37.088C145.73 37.432 145.286 37.704 144.766 37.904C144.246 38.096 143.71 38.192 143.158 38.192ZM153.082 25.652C153.97 25.652 154.77 25.8 155.482 26.096C156.194 26.392 156.802 26.812 157.306 27.356C157.81 27.9 158.194 28.56 158.458 29.336C158.73 30.104 158.866 30.964 158.866 31.916C158.866 32.876 158.73 33.74 158.458 34.508C158.194 35.276 157.81 35.932 157.306 36.476C156.802 37.02 156.194 37.44 155.482 37.736C154.77 38.024 153.97 38.168 153.082 38.168C152.186 38.168 151.378 38.024 150.658 37.736C149.946 37.44 149.338 37.02 148.834 36.476C148.33 35.932 147.942 35.276 147.67 34.508C147.406 33.74 147.274 32.876 147.274 31.916C147.274 30.964 147.406 30.104 147.67 29.336C147.942 28.56 148.33 27.9 148.834 27.356C149.338 26.812 149.946 26.392 150.658 26.096C151.378 25.8 152.186 25.652 153.082 25.652ZM153.082 36.5C154.282 36.5 155.178 36.1 155.77 35.3C156.362 34.492 156.658 33.368 156.658 31.928C156.658 30.48 156.362 29.352 155.77 28.544C155.178 27.736 154.282 27.332 153.082 27.332C152.474 27.332 151.942 27.436 151.486 27.644C151.038 27.852 150.662 28.152 150.358 28.544C150.062 28.936 149.838 29.42 149.686 29.996C149.542 30.564 149.47 31.208 149.47 31.928C149.47 33.368 149.766 34.492 150.358 35.3C150.958 36.1 151.866 36.5 153.082 36.5ZM163.603 28.28C163.987 27.448 164.459 26.8 165.019 26.336C165.579 25.864 166.263 25.628 167.071 25.628C167.327 25.628 167.571 25.656 167.803 25.712C168.043 25.768 168.255 25.856 168.439 25.976L168.283 27.572C168.235 27.772 168.115 27.872 167.923 27.872C167.811 27.872 167.647 27.848 167.431 27.8C167.215 27.752 166.971 27.728 166.699 27.728C166.315 27.728 165.971 27.784 165.667 27.896C165.371 28.008 165.103 28.176 164.863 28.4C164.631 28.616 164.419 28.888 164.227 29.216C164.043 29.536 163.875 29.904 163.723 30.32V38H161.575V25.844H162.799C163.031 25.844 163.191 25.888 163.279 25.976C163.367 26.064 163.427 26.216 163.459 26.432L163.603 28.28ZM177.961 30.596C177.961 30.1 177.889 29.648 177.745 29.24C177.609 28.824 177.405 28.468 177.133 28.172C176.869 27.868 176.545 27.636 176.161 27.476C175.777 27.308 175.341 27.224 174.853 27.224C173.829 27.224 173.017 27.524 172.417 28.124C171.825 28.716 171.457 29.54 171.313 30.596H177.961ZM179.689 36.296C179.425 36.616 179.109 36.896 178.741 37.136C178.373 37.368 177.977 37.56 177.553 37.712C177.137 37.864 176.705 37.976 176.257 38.048C175.809 38.128 175.365 38.168 174.925 38.168C174.085 38.168 173.309 38.028 172.597 37.748C171.893 37.46 171.281 37.044 170.761 36.5C170.249 35.948 169.849 35.268 169.561 34.46C169.273 33.652 169.129 32.724 169.129 31.676C169.129 30.828 169.257 30.036 169.513 29.3C169.777 28.564 170.153 27.928 170.641 27.392C171.129 26.848 171.725 26.424 172.429 26.12C173.133 25.808 173.925 25.652 174.805 25.652C175.533 25.652 176.205 25.776 176.821 26.024C177.445 26.264 177.981 26.616 178.429 27.08C178.885 27.536 179.241 28.104 179.497 28.784C179.753 29.456 179.881 30.224 179.881 31.088C179.881 31.424 179.845 31.648 179.773 31.76C179.701 31.872 179.565 31.928 179.365 31.928H171.241C171.265 32.696 171.369 33.364 171.553 33.932C171.745 34.5 172.009 34.976 172.345 35.36C172.681 35.736 173.081 36.02 173.545 36.212C174.009 36.396 174.529 36.488 175.105 36.488C175.641 36.488 176.101 36.428 176.485 36.308C176.877 36.18 177.213 36.044 177.493 35.9C177.773 35.756 178.005 35.624 178.189 35.504C178.381 35.376 178.545 35.312 178.681 35.312C178.857 35.312 178.993 35.38 179.089 35.516L179.689 36.296Z" fill="white"/>
<rect x="0.5" y="0.5" width="209" height="56" rx="3.5" stroke="white"/>
</svg>
