<svg width="20" height="20" viewBox="0 0 20 20" fill="none" xmlns="http://www.w3.org/2000/svg">
<path d="M10.335 3.33333C8.91808 3.33333 7.59319 3.57465 6.36033 4.05729C5.12747 4.53993 4.14813 5.19097 3.42231 6.01042C2.69648 6.82986 2.33357 7.71528 2.33357 8.66667C2.33357 9.44444 2.58188 10.1858 3.0785 10.8906C3.57511 11.5955 4.27489 12.2049 5.17783 12.7188L6.08424 13.2396L5.80294 14.2396C5.63624 14.8715 5.39315 15.4688 5.07364 16.0313C6.12939 15.5938 7.08442 15 7.93874 14.25L8.38674 13.8542L8.98059 13.9167C9.45984 13.9722 9.91131 14 10.335 14C11.7519 14 13.0768 13.7587 14.3097 13.276C15.5425 12.7934 16.5219 12.1424 17.2477 11.3229C17.9735 10.5035 18.3364 9.61806 18.3364 8.66667C18.3364 7.71528 17.9735 6.82986 17.2477 6.01042C16.5219 5.19097 15.5425 4.53993 14.3097 4.05729C13.0768 3.57465 11.7519 3.33333 10.335 3.33333ZM19.67 8.66667C19.67 9.875 19.2533 10.9913 18.4198 12.0156C17.5863 13.0399 16.4541 13.849 15.0233 14.4427C13.5925 15.0365 12.0297 15.3333 10.335 15.3333C9.8488 15.3333 9.34524 15.3056 8.82431 15.25C7.44907 16.4653 5.85156 17.3056 4.03179 17.7708C3.69145 17.8681 3.29555 17.9444 2.84408 18H2.79199C2.6878 18 2.59403 17.9635 2.51069 17.8906C2.42734 17.8177 2.37177 17.7222 2.34399 17.6042V17.5938C2.32315 17.566 2.32142 17.5243 2.33878 17.4688C2.35614 17.4132 2.36309 17.3785 2.35962 17.3646C2.35614 17.3507 2.37177 17.3177 2.4065 17.2656L2.46901 17.1719L2.54194 17.0833L2.62529 16.9896C2.67391 16.934 2.78157 16.8142 2.94826 16.6302C3.11496 16.4462 3.23477 16.3142 3.3077 16.2344C3.38063 16.1545 3.48829 16.0174 3.63068 15.8229C3.77306 15.6285 3.88593 15.4514 3.96928 15.2917C4.05263 15.1319 4.1464 14.9271 4.25058 14.6771C4.35477 14.4271 4.44506 14.1632 4.52146 13.8854C3.43099 13.2674 2.57146 12.5035 1.94288 11.5938C1.31429 10.684 1 9.70833 1 8.66667C1 7.45833 1.41674 6.34201 2.25022 5.31771C3.08371 4.2934 4.21585 3.48438 5.64666 2.89063C7.07747 2.29688 8.64025 2 10.335 2C12.0297 2 13.5925 2.29688 15.0233 2.89063C16.4541 3.48438 17.5863 4.2934 18.4198 5.31771C19.2533 6.34201 19.67 7.45833 19.67 8.66667Z" fill="black" fill-opacity="0.4"/>
</svg>
