<svg width="210" height="57" viewBox="0 0 210 57" fill="none" xmlns="http://www.w3.org/2000/svg">
<rect x="0.5" y="0.5" width="209" height="56" rx="3.5" stroke="white"/>
<path d="M38.749 25.644L24.955 11.813L42.505 21.888L38.749 25.644ZM21.356 11C20.543 11.425 20 12.2 20 13.206V40.787C20 41.793 20.544 42.568 21.356 42.993L37.394 26.993L21.356 11ZM47.93 25.1L44.249 22.969L40.143 27L44.249 31.031L48.005 28.9C49.13 28.007 49.13 25.994 47.93 25.1ZM24.956 42.188L42.506 32.113L38.75 28.357L24.956 42.188Z" fill="white"/>
<path d="M81.164 26.732V33.332C80.3 33.956 79.376 34.424 78.392 34.736C77.416 35.04 76.344 35.192 75.176 35.192C73.792 35.192 72.544 34.98 71.432 34.556C70.32 34.124 69.368 33.524 68.576 32.756C67.792 31.98 67.188 31.052 66.764 29.972C66.34 28.892 66.128 27.704 66.128 26.408C66.128 25.096 66.332 23.9 66.74 22.82C67.156 21.74 67.744 20.816 68.504 20.048C69.264 19.272 70.188 18.672 71.276 18.248C72.364 17.824 73.58 17.612 74.924 17.612C75.604 17.612 76.236 17.664 76.82 17.768C77.404 17.864 77.944 18.008 78.44 18.2C78.936 18.384 79.396 18.612 79.82 18.884C80.244 19.148 80.64 19.448 81.008 19.784L80.348 20.84C80.244 21 80.108 21.104 79.94 21.152C79.78 21.192 79.6 21.152 79.4 21.032C79.208 20.92 78.988 20.784 78.74 20.624C78.492 20.464 78.188 20.312 77.828 20.168C77.476 20.016 77.056 19.888 76.568 19.784C76.088 19.68 75.516 19.628 74.852 19.628C73.884 19.628 73.008 19.788 72.224 20.108C71.44 20.42 70.772 20.872 70.22 21.464C69.668 22.048 69.244 22.76 68.948 23.6C68.652 24.432 68.504 25.368 68.504 26.408C68.504 27.488 68.656 28.456 68.96 29.312C69.272 30.16 69.712 30.884 70.28 31.484C70.856 32.076 71.552 32.528 72.368 32.84C73.184 33.152 74.1 33.308 75.116 33.308C75.916 33.308 76.624 33.22 77.24 33.044C77.864 32.86 78.472 32.608 79.064 32.288V28.508H76.388C76.236 28.508 76.112 28.464 76.016 28.376C75.928 28.288 75.884 28.18 75.884 28.052V26.732H81.164ZM89.2066 22.652C90.0946 22.652 90.8946 22.8 91.6066 23.096C92.3186 23.392 92.9266 23.812 93.4306 24.356C93.9346 24.9 94.3186 25.56 94.5826 26.336C94.8546 27.104 94.9906 27.964 94.9906 28.916C94.9906 29.876 94.8546 30.74 94.5826 31.508C94.3186 32.276 93.9346 32.932 93.4306 33.476C92.9266 34.02 92.3186 34.44 91.6066 34.736C90.8946 35.024 90.0946 35.168 89.2066 35.168C88.3106 35.168 87.5026 35.024 86.7826 34.736C86.0706 34.44 85.4626 34.02 84.9586 33.476C84.4546 32.932 84.0666 32.276 83.7946 31.508C83.5306 30.74 83.3986 29.876 83.3986 28.916C83.3986 27.964 83.5306 27.104 83.7946 26.336C84.0666 25.56 84.4546 24.9 84.9586 24.356C85.4626 23.812 86.0706 23.392 86.7826 23.096C87.5026 22.8 88.3106 22.652 89.2066 22.652ZM89.2066 33.5C90.4066 33.5 91.3026 33.1 91.8946 32.3C92.4866 31.492 92.7826 30.368 92.7826 28.928C92.7826 27.48 92.4866 26.352 91.8946 25.544C91.3026 24.736 90.4066 24.332 89.2066 24.332C88.5986 24.332 88.0666 24.436 87.6106 24.644C87.1626 24.852 86.7866 25.152 86.4826 25.544C86.1866 25.936 85.9626 26.42 85.8106 26.996C85.6666 27.564 85.5946 28.208 85.5946 28.928C85.5946 30.368 85.8906 31.492 86.4826 32.3C87.0826 33.1 87.9906 33.5 89.2066 33.5ZM102.824 22.652C103.712 22.652 104.512 22.8 105.224 23.096C105.936 23.392 106.544 23.812 107.048 24.356C107.552 24.9 107.936 25.56 108.2 26.336C108.472 27.104 108.608 27.964 108.608 28.916C108.608 29.876 108.472 30.74 108.2 31.508C107.936 32.276 107.552 32.932 107.048 33.476C106.544 34.02 105.936 34.44 105.224 34.736C104.512 35.024 103.712 35.168 102.824 35.168C101.928 35.168 101.12 35.024 100.4 34.736C99.6878 34.44 99.0798 34.02 98.5758 33.476C98.0718 32.932 97.6838 32.276 97.4118 31.508C97.1478 30.74 97.0158 29.876 97.0158 28.916C97.0158 27.964 97.1478 27.104 97.4118 26.336C97.6838 25.56 98.0718 24.9 98.5758 24.356C99.0798 23.812 99.6878 23.392 100.4 23.096C101.12 22.8 101.928 22.652 102.824 22.652ZM102.824 33.5C104.024 33.5 104.92 33.1 105.512 32.3C106.104 31.492 106.4 30.368 106.4 28.928C106.4 27.48 106.104 26.352 105.512 25.544C104.92 24.736 104.024 24.332 102.824 24.332C102.216 24.332 101.684 24.436 101.228 24.644C100.78 24.852 100.404 25.152 100.1 25.544C99.8038 25.936 99.5798 26.42 99.4278 26.996C99.2838 27.564 99.2118 28.208 99.2118 28.928C99.2118 30.368 99.5078 31.492 100.1 32.3C100.7 33.1 101.608 33.5 102.824 33.5ZM115.483 29.06C115.915 29.06 116.295 29 116.623 28.88C116.951 28.76 117.227 28.592 117.451 28.376C117.675 28.16 117.843 27.904 117.955 27.608C118.067 27.304 118.123 26.972 118.123 26.612C118.123 25.868 117.895 25.276 117.439 24.836C116.991 24.396 116.339 24.176 115.483 24.176C114.619 24.176 113.959 24.396 113.503 24.836C113.055 25.276 112.831 25.868 112.831 26.612C112.831 26.972 112.887 27.304 112.999 27.608C113.119 27.904 113.291 28.16 113.515 28.376C113.739 28.592 114.015 28.76 114.343 28.88C114.671 29 115.051 29.06 115.483 29.06ZM119.335 35.66C119.335 35.364 119.251 35.124 119.083 34.94C118.915 34.756 118.687 34.612 118.399 34.508C118.119 34.404 117.791 34.332 117.415 34.292C117.039 34.244 116.639 34.208 116.215 34.184C115.799 34.16 115.375 34.136 114.943 34.112C114.511 34.088 114.095 34.048 113.695 33.992C113.247 34.2 112.879 34.464 112.591 34.784C112.311 35.096 112.171 35.464 112.171 35.888C112.171 36.16 112.239 36.412 112.375 36.644C112.519 36.884 112.735 37.088 113.023 37.256C113.311 37.432 113.671 37.568 114.103 37.664C114.543 37.768 115.059 37.82 115.651 37.82C116.227 37.82 116.743 37.768 117.199 37.664C117.655 37.56 118.039 37.412 118.351 37.22C118.671 37.028 118.915 36.8 119.083 36.536C119.251 36.272 119.335 35.98 119.335 35.66ZM121.507 23.324V24.116C121.507 24.38 121.339 24.548 121.003 24.62L119.623 24.8C119.895 25.328 120.031 25.912 120.031 26.552C120.031 27.144 119.915 27.684 119.683 28.172C119.459 28.652 119.147 29.064 118.747 29.408C118.347 29.752 117.867 30.016 117.307 30.2C116.747 30.384 116.139 30.476 115.483 30.476C114.915 30.476 114.379 30.408 113.875 30.272C113.619 30.432 113.423 30.604 113.287 30.788C113.151 30.964 113.083 31.144 113.083 31.328C113.083 31.616 113.199 31.836 113.431 31.988C113.671 32.132 113.983 32.236 114.367 32.3C114.751 32.364 115.187 32.404 115.675 32.42C116.171 32.436 116.675 32.464 117.187 32.504C117.707 32.536 118.211 32.596 118.699 32.684C119.195 32.772 119.635 32.916 120.019 33.116C120.403 33.316 120.711 33.592 120.943 33.944C121.183 34.296 121.303 34.752 121.303 35.312C121.303 35.832 121.171 36.336 120.907 36.824C120.651 37.312 120.279 37.744 119.791 38.12C119.303 38.504 118.703 38.808 117.991 39.032C117.287 39.264 116.491 39.38 115.603 39.38C114.715 39.38 113.939 39.292 113.275 39.116C112.611 38.94 112.059 38.704 111.619 38.408C111.179 38.112 110.847 37.768 110.623 37.376C110.407 36.992 110.299 36.588 110.299 36.164C110.299 35.564 110.487 35.056 110.863 34.64C111.239 34.224 111.755 33.892 112.411 33.644C112.051 33.484 111.763 33.272 111.547 33.008C111.339 32.736 111.235 32.372 111.235 31.916C111.235 31.74 111.267 31.56 111.331 31.376C111.395 31.184 111.491 30.996 111.619 30.812C111.755 30.62 111.919 30.44 112.111 30.272C112.303 30.104 112.527 29.956 112.783 29.828C112.183 29.492 111.715 29.048 111.379 28.496C111.043 27.936 110.875 27.288 110.875 26.552C110.875 25.96 110.987 25.424 111.211 24.944C111.443 24.456 111.763 24.044 112.171 23.708C112.579 23.364 113.063 23.1 113.623 22.916C114.191 22.732 114.811 22.64 115.483 22.64C116.011 22.64 116.503 22.7 116.959 22.82C117.415 22.932 117.831 23.1 118.207 23.324H121.507ZM125.923 17.324V35H123.787V17.324H125.923ZM137.523 27.596C137.523 27.1 137.451 26.648 137.307 26.24C137.171 25.824 136.967 25.468 136.695 25.172C136.431 24.868 136.107 24.636 135.723 24.476C135.339 24.308 134.903 24.224 134.415 24.224C133.391 24.224 132.579 24.524 131.979 25.124C131.387 25.716 131.019 26.54 130.875 27.596H137.523ZM139.251 33.296C138.987 33.616 138.671 33.896 138.303 34.136C137.935 34.368 137.539 34.56 137.115 34.712C136.699 34.864 136.267 34.976 135.819 35.048C135.371 35.128 134.927 35.168 134.487 35.168C133.647 35.168 132.871 35.028 132.159 34.748C131.455 34.46 130.843 34.044 130.323 33.5C129.811 32.948 129.411 32.268 129.123 31.46C128.835 30.652 128.691 29.724 128.691 28.676C128.691 27.828 128.819 27.036 129.075 26.3C129.339 25.564 129.715 24.928 130.203 24.392C130.691 23.848 131.287 23.424 131.991 23.12C132.695 22.808 133.487 22.652 134.367 22.652C135.095 22.652 135.767 22.776 136.383 23.024C137.007 23.264 137.543 23.616 137.991 24.08C138.447 24.536 138.803 25.104 139.059 25.784C139.315 26.456 139.443 27.224 139.443 28.088C139.443 28.424 139.407 28.648 139.335 28.76C139.263 28.872 139.127 28.928 138.927 28.928H130.803C130.827 29.696 130.931 30.364 131.115 30.932C131.307 31.5 131.571 31.976 131.907 32.36C132.243 32.736 132.643 33.02 133.107 33.212C133.571 33.396 134.091 33.488 134.667 33.488C135.203 33.488 135.663 33.428 136.047 33.308C136.439 33.18 136.775 33.044 137.055 32.9C137.335 32.756 137.567 32.624 137.751 32.504C137.943 32.376 138.107 32.312 138.243 32.312C138.419 32.312 138.555 32.38 138.651 32.516L139.251 33.296ZM150.356 32.072C150.748 32.6 151.176 32.972 151.64 33.188C152.104 33.404 152.624 33.512 153.2 33.512C154.336 33.512 155.208 33.108 155.816 32.3C156.424 31.492 156.728 30.34 156.728 28.844C156.728 28.052 156.656 27.372 156.512 26.804C156.376 26.236 156.176 25.772 155.912 25.412C155.648 25.044 155.324 24.776 154.94 24.608C154.556 24.44 154.12 24.356 153.632 24.356C152.936 24.356 152.324 24.516 151.796 24.836C151.276 25.156 150.796 25.608 150.356 26.192V32.072ZM150.248 24.728C150.76 24.096 151.352 23.588 152.024 23.204C152.696 22.82 153.464 22.628 154.328 22.628C155.032 22.628 155.668 22.764 156.236 23.036C156.804 23.3 157.288 23.696 157.688 24.224C158.088 24.744 158.396 25.392 158.612 26.168C158.828 26.944 158.936 27.836 158.936 28.844C158.936 29.74 158.816 30.576 158.576 31.352C158.336 32.12 157.988 32.788 157.532 33.356C157.084 33.916 156.532 34.36 155.876 34.688C155.228 35.008 154.496 35.168 153.68 35.168C152.936 35.168 152.296 35.044 151.76 34.796C151.232 34.54 150.764 34.188 150.356 33.74V39.116H148.208V22.844H149.492C149.796 22.844 149.984 22.992 150.056 23.288L150.248 24.728ZM163.869 17.324V35H161.733V17.324H163.869ZM173.921 29.528C172.937 29.56 172.097 29.64 171.401 29.768C170.713 29.888 170.149 30.048 169.709 30.248C169.277 30.448 168.961 30.684 168.761 30.956C168.569 31.228 168.473 31.532 168.473 31.868C168.473 32.188 168.525 32.464 168.629 32.696C168.733 32.928 168.873 33.12 169.049 33.272C169.233 33.416 169.445 33.524 169.685 33.596C169.933 33.66 170.197 33.692 170.477 33.692C170.853 33.692 171.197 33.656 171.509 33.584C171.821 33.504 172.113 33.392 172.385 33.248C172.665 33.104 172.929 32.932 173.177 32.732C173.433 32.532 173.681 32.304 173.921 32.048V29.528ZM167.021 24.56C167.693 23.912 168.417 23.428 169.193 23.108C169.969 22.788 170.829 22.628 171.773 22.628C172.453 22.628 173.057 22.74 173.585 22.964C174.113 23.188 174.557 23.5 174.917 23.9C175.277 24.3 175.549 24.784 175.733 25.352C175.917 25.92 176.009 26.544 176.009 27.224V35H175.061C174.853 35 174.693 34.968 174.581 34.904C174.469 34.832 174.381 34.696 174.317 34.496L174.077 33.344C173.757 33.64 173.445 33.904 173.141 34.136C172.837 34.36 172.517 34.552 172.181 34.712C171.845 34.864 171.485 34.98 171.101 35.06C170.725 35.148 170.305 35.192 169.841 35.192C169.369 35.192 168.925 35.128 168.509 35C168.093 34.864 167.729 34.664 167.417 34.4C167.113 34.136 166.869 33.804 166.685 33.404C166.509 32.996 166.421 32.516 166.421 31.964C166.421 31.484 166.553 31.024 166.817 30.584C167.081 30.136 167.509 29.74 168.101 29.396C168.693 29.052 169.465 28.772 170.417 28.556C171.369 28.332 172.537 28.204 173.921 28.172V27.224C173.921 26.28 173.717 25.568 173.309 25.088C172.901 24.6 172.305 24.356 171.521 24.356C170.993 24.356 170.549 24.424 170.189 24.56C169.837 24.688 169.529 24.836 169.265 25.004C169.009 25.164 168.785 25.312 168.593 25.448C168.409 25.576 168.225 25.64 168.041 25.64C167.897 25.64 167.773 25.604 167.669 25.532C167.565 25.452 167.477 25.356 167.405 25.244L167.021 24.56ZM189.469 22.844L182.689 38.588C182.617 38.748 182.525 38.876 182.413 38.972C182.309 39.068 182.145 39.116 181.921 39.116H180.337L182.557 34.292L177.541 22.844H179.389C179.573 22.844 179.717 22.892 179.821 22.988C179.933 23.076 180.009 23.176 180.049 23.288L183.301 30.944C183.429 31.28 183.537 31.632 183.625 32C183.737 31.624 183.857 31.268 183.985 30.932L187.141 23.288C187.189 23.16 187.269 23.056 187.381 22.976C187.501 22.888 187.633 22.844 187.777 22.844H189.469Z" fill="white"/>
</svg>
