<svg width="38" height="40" viewBox="0 0 38 40" fill="none" xmlns="http://www.w3.org/2000/svg">
<g clip-path="url(#clip0_44_880)">
<path d="M0.0730286 24.4155V32.3409C0.0730286 32.9074 0.433796 33.4025 0.948 33.5376C12.5717 36.5928 24.1953 30.1361 35.819 32.91C36.5369 33.0813 37.2174 32.4935 37.2174 31.7066V24.4155C24.8359 20.6402 12.4545 28.1908 0.0730286 24.4155Z" fill="#FF473E"/>
<path d="M0.0730286 15.5417V24.4156C12.4545 28.191 24.8359 20.6403 37.2174 24.4156V15.5417C24.8359 11.7664 12.4545 19.3171 0.0730286 15.5417Z" fill="#0B67B2"/>
<path d="M0.0730286 7.90579V15.5418C12.4545 19.3171 24.8359 11.7665 37.2174 15.5418V7.27149C37.2174 6.705 36.8567 6.20993 36.3424 6.07477C24.7188 3.01961 13.0951 9.47625 1.47148 6.70243C0.753594 6.53118 0.0730286 7.11891 0.0730286 7.90579Z" fill="#E8E8E8"/>
</g>
<defs>
<clipPath id="clip0_44_880">
<rect width="37.3913" height="40" fill="white"/>
</clipPath>
</defs>
</svg>
