<svg width="20" height="20" viewBox="0 0 20 20" fill="none" xmlns="http://www.w3.org/2000/svg">
<path d="M10 16.5C8.94745 15.6022 7.97183 14.6179 7.08333 13.5575C5.75 11.965 4.16667 9.59333 4.16667 7.33333C4.16609 6.17913 4.50792 5.0507 5.14891 4.09085C5.7899 3.131 6.70123 2.38288 7.76756 1.94116C8.83389 1.49944 10.0073 1.38399 11.1393 1.60941C12.2712 1.83482 13.3109 2.39098 14.1267 3.2075C14.6698 3.74821 15.1003 4.39128 15.3932 5.09947C15.6862 5.80767 15.8358 6.56694 15.8333 7.33333C15.8333 9.59333 14.25 11.965 12.9167 13.5575C12.0282 14.6179 11.0525 15.6022 10 16.5ZM10 4.83333C9.33696 4.83333 8.70107 5.09672 8.23223 5.56556C7.76339 6.0344 7.5 6.67029 7.5 7.33333C7.5 7.99637 7.76339 8.63226 8.23223 9.1011C8.70107 9.56994 9.33696 9.83333 10 9.83333C10.663 9.83333 11.2989 9.56994 11.7678 9.1011C12.2366 8.63226 12.5 7.99637 12.5 7.33333C12.5 6.67029 12.2366 6.0344 11.7678 5.56556C11.2989 5.09672 10.663 4.83333 10 4.83333Z" fill="#D50000"/>
</svg>
