<svg width="12" height="17" viewBox="0 0 12 17" fill="none" xmlns="http://www.w3.org/2000/svg">
<path fill-rule="evenodd" clip-rule="evenodd" d="M0.166656 6.50008C0.166656 3.27508 2.77499 0.666748 5.99999 0.666748C9.22499 0.666748 11.8333 3.27508 11.8333 6.50008C11.8333 9.97508 8.14999 14.7667 6.64166 16.5917C6.30832 16.9917 5.69999 16.9917 5.36666 16.5917C3.84999 14.7667 0.166656 9.97508 0.166656 6.50008ZM3.91658 6.5C3.91658 7.65 4.84991 8.58333 5.99991 8.58333C7.14991 8.58333 8.08324 7.65 8.08324 6.5C8.08324 5.35 7.14991 4.41667 5.99991 4.41667C4.84991 4.41667 3.91658 5.35 3.91658 6.5Z" fill="white"/>
</svg>
