<svg width="6" height="11" viewBox="0 0 6 11" fill="none" xmlns="http://www.w3.org/2000/svg">
<path fill-rule="evenodd" clip-rule="evenodd" d="M3.19852 0.0123056C3.38529 0.0611426 3.51724 0.245812 3.51724 0.458375V3.66669H5.5862C5.72306 3.66669 5.85106 3.74163 5.92814 3.86689C6.00521 3.99215 6.02138 4.15152 5.97134 4.2926L3.69548 10.7092C3.62435 10.9098 3.43672 11.0284 3.24466 10.9942C3.0526 10.96 2.90798 10.7822 2.89719 10.5671L2.712 6.875H0.413793C0.270382 6.875 0.137196 6.79275 0.0618001 6.65762C-0.0135957 6.5225 -0.0204498 6.35377 0.0436857 6.21169L0.664375 4.8367C0.766577 4.6103 1.01513 4.51853 1.21954 4.63173C1.42394 4.74494 1.50679 5.02024 1.40459 5.24665L1.08332 5.95834H3.10345C3.32306 5.95834 3.50442 6.14837 3.5166 6.39124L3.61835 8.41978L4.97906 4.58335H3.10345C2.87492 4.58335 2.68965 4.37814 2.68965 4.12502V2.39989L2.23218 3.41333C2.12997 3.63973 1.88142 3.7315 1.67701 3.6183C1.47261 3.5051 1.38976 3.22979 1.49196 3.00338L2.73334 0.253403C2.81916 0.0632811 3.01174 -0.0365314 3.19852 0.0123056Z" fill="#8155FF"/>
</svg>
