<svg width="18" height="16" viewBox="0 0 18 16" fill="none" xmlns="http://www.w3.org/2000/svg">
<path fill-rule="evenodd" clip-rule="evenodd" d="M15.7187 10.7166L13.3783 10.475C12.8163 10.4166 12.2634 10.5916 11.8672 10.95L10.1718 12.4833C7.56423 11.2833 5.42656 9.3583 4.09973 6.99163L5.80433 5.44997C6.20054 5.09163 6.39404 4.59163 6.32954 4.0833L6.06233 1.9833C5.95176 1.14163 5.16856 0.508301 4.22872 0.508301H2.63469C1.59349 0.508301 0.727369 1.29163 0.791867 2.2333C1.28021 9.34997 7.57344 15.0333 15.4331 15.475C16.4743 15.5333 17.3404 14.75 17.3404 13.8083V12.3666C17.3496 11.525 16.6493 10.8166 15.7187 10.7166Z" fill="white"/>
</svg>
